<svg xmlns="http://www.w3.org/2000/svg" xmlns:xlink="http://www.w3.org/1999/xlink" width="500" zoomAndPan="magnify" viewBox="0 0 375 374.999991" height="500" preserveAspectRatio="xMidYMid meet" version="1.0"><defs><clipPath id="id1"><path d="M 177 230 L 324 230 L 324 356.558594 L 177 356.558594 Z M 177 230 " clip-rule="nonzero"/></clipPath><clipPath id="id2"><path d="M 18.308594 177 L 145 177 L 145 324 L 18.308594 324 Z M 18.308594 177 " clip-rule="nonzero"/></clipPath><clipPath id="id3"><path d="M 51 18.308594 L 198 18.308594 L 198 145 L 51 145 Z M 51 18.308594 " clip-rule="nonzero"/></clipPath><clipPath id="id4"><path d="M 230 51 L 356.558594 51 L 356.558594 198 L 230 198 Z M 230 51 " clip-rule="nonzero"/></clipPath></defs><g clip-path="url(#id1)"><path fill="rgb(77.249146%, 4.708862%, 24.308777%)" d="M 218.066406 275.15625 L 177.339844 315.882812 L 218.066406 356.605469 L 228.15625 346.515625 L 204.660156 323.015625 L 323.015625 323.015625 L 323.015625 230.25 L 308.746094 230.25 L 308.746094 308.746094 L 204.660156 308.746094 L 228.15625 285.246094 Z M 218.066406 275.15625 " fill-opacity="1" fill-rule="nonzero"/></g><g clip-path="url(#id2)"><path fill="rgb(77.249146%, 4.708862%, 24.308777%)" d="M 28.347656 228.15625 L 51.847656 204.65625 L 51.847656 323.015625 L 144.617188 323.015625 L 144.617188 308.746094 L 66.117188 308.746094 L 66.117188 204.65625 L 89.617188 228.15625 L 99.707031 218.066406 L 58.980469 177.339844 L 18.257812 218.066406 Z M 28.347656 228.15625 " fill-opacity="1" fill-rule="nonzero"/></g><g clip-path="url(#id3)"><path fill="rgb(77.249146%, 4.708862%, 24.308777%)" d="M 51.847656 144.617188 L 66.117188 144.617188 L 66.117188 66.117188 L 170.207031 66.117188 L 146.707031 89.617188 L 156.796875 99.707031 L 197.523438 58.980469 L 156.796875 18.257812 L 146.707031 28.347656 L 170.207031 51.847656 L 51.847656 51.847656 Z M 51.847656 144.617188 " fill-opacity="1" fill-rule="nonzero"/></g><g clip-path="url(#id4)"><path fill="rgb(77.249146%, 4.708862%, 24.308777%)" d="M 230.25 51.847656 L 230.25 66.117188 L 308.746094 66.117188 L 308.746094 170.207031 L 285.246094 146.707031 L 275.15625 156.796875 L 315.882812 197.523438 L 356.605469 156.796875 L 346.515625 146.707031 L 323.015625 170.207031 L 323.015625 51.847656 Z M 230.25 51.847656 " fill-opacity="1" fill-rule="nonzero"/></g><path fill="rgb(77.249146%, 4.708862%, 24.308777%)" d="M 163.011719 133.226562 C 152.0625 144.121094 152.0625 161.738281 163.011719 172.628906 L 182.816406 192.328125 L 202.621094 212.03125 C 211.890625 221.25 213.277344 235.285156 206.871094 245.96875 C 208.820312 244.824219 210.679688 243.417969 212.363281 241.773438 C 223.3125 230.878906 223.3125 213.261719 212.363281 202.371094 L 192.558594 182.671875 L 172.753906 162.96875 C 163.484375 153.75 162.097656 139.714844 168.53125 129.03125 C 166.554688 130.175781 164.695312 131.554688 163.011719 133.226562 Z M 163.011719 133.226562 " fill-opacity="1" fill-rule="nonzero"/><path fill="rgb(77.249146%, 4.708862%, 24.308777%)" d="M 172.722656 123.570312 C 172.042969 124.242188 162.097656 134.078125 161.507812 134.785156 C 161.507812 134.785156 165.34375 130.96875 168.503906 129 C 179.246094 122.628906 193.355469 124.007812 202.621094 133.226562 C 213.574219 144.121094 213.574219 161.738281 202.621094 172.628906 L 212.332031 162.96875 C 223.28125 152.078125 223.28125 134.460938 212.332031 123.570312 C 201.414062 112.675781 183.671875 112.675781 172.722656 123.570312 Z M 172.722656 123.570312 " fill-opacity="1" fill-rule="nonzero"/><path fill="rgb(77.249146%, 4.708862%, 24.308777%)" d="M 202.621094 251.429688 C 203.300781 250.757812 213.246094 240.921875 213.839844 240.214844 C 213.839844 240.214844 210 244.03125 206.84375 246 C 196.097656 252.371094 181.992188 250.992188 172.722656 241.800781 C 161.773438 230.910156 161.773438 213.292969 172.722656 202.398438 L 163.011719 212.03125 C 152.0625 222.921875 152.0625 240.539062 163.011719 251.429688 C 173.933594 262.324219 191.671875 262.324219 202.621094 251.429688 Z M 202.621094 251.429688 " fill-opacity="1" fill-rule="nonzero"/></svg>