<svg xmlns="http://www.w3.org/2000/svg" xmlns:xlink="http://www.w3.org/1999/xlink" width="500" zoomAndPan="magnify" viewBox="0 0 375 374.999991" height="500" preserveAspectRatio="xMidYMid meet" version="1.0"><defs><g/><clipPath id="id1"><path d="M 41 49 L 63 49 L 63 67.3125 L 41 67.3125 Z M 41 49 " clip-rule="nonzero"/></clipPath><clipPath id="id2"><path d="M 18.308594 41 L 37 41 L 37 63 L 18.308594 63 Z M 18.308594 41 " clip-rule="nonzero"/></clipPath><clipPath id="id3"><path d="M 23 18.308594 L 45 18.308594 L 45 37 L 23 37 Z M 23 18.308594 " clip-rule="nonzero"/></clipPath><clipPath id="id4"><path d="M 49 23 L 67.3125 23 L 67.3125 45 L 49 45 Z M 49 23 " clip-rule="nonzero"/></clipPath><clipPath id="id5"><path d="M 38 34 L 47.753906 34 L 47.753906 51 L 38 51 Z M 38 34 " clip-rule="nonzero"/></clipPath><clipPath id="id6"><path d="M 39 32.371094 L 47.753906 32.371094 L 47.753906 41 L 39 41 Z M 39 32.371094 " clip-rule="nonzero"/></clipPath></defs><g clip-path="url(#id1)"><path fill="rgb(100%, 100%, 100%)" d="M 47.25 55.519531 L 41.347656 61.417969 L 47.25 67.320312 L 48.710938 65.859375 L 45.304688 62.453125 L 62.453125 62.453125 L 62.453125 49.011719 L 60.386719 49.011719 L 60.386719 60.386719 L 45.304688 60.386719 L 48.710938 56.980469 Z M 47.25 55.519531 " fill-opacity="1" fill-rule="nonzero"/></g><g clip-path="url(#id2)"><path fill="rgb(100%, 100%, 100%)" d="M 19.761719 48.710938 L 23.164062 45.304688 L 23.164062 62.453125 L 36.605469 62.453125 L 36.605469 60.386719 L 25.234375 60.386719 L 25.234375 45.304688 L 28.636719 48.710938 L 30.101562 47.25 L 24.199219 41.347656 L 18.300781 47.25 Z M 19.761719 48.710938 " fill-opacity="1" fill-rule="nonzero"/></g><g clip-path="url(#id3)"><path fill="rgb(100%, 100%, 100%)" d="M 23.164062 36.605469 L 25.234375 36.605469 L 25.234375 25.234375 L 40.3125 25.234375 L 36.910156 28.636719 L 38.371094 30.101562 L 44.273438 24.199219 L 38.371094 18.300781 L 36.910156 19.761719 L 40.3125 23.164062 L 23.164062 23.164062 Z M 23.164062 36.605469 " fill-opacity="1" fill-rule="nonzero"/></g><g clip-path="url(#id4)"><path fill="rgb(100%, 100%, 100%)" d="M 49.011719 23.164062 L 49.011719 25.234375 L 60.386719 25.234375 L 60.386719 40.3125 L 56.980469 36.910156 L 55.519531 38.371094 L 61.417969 44.273438 L 67.320312 38.371094 L 65.859375 36.910156 L 62.453125 40.3125 L 62.453125 23.164062 Z M 49.011719 23.164062 " fill-opacity="1" fill-rule="nonzero"/></g><g clip-path="url(#id5)"><path fill="rgb(100%, 100%, 100%)" d="M 39.332031 35.261719 C 37.800781 36.78125 37.800781 39.238281 39.332031 40.757812 L 44.863281 46.257812 C 46.160156 47.542969 46.351562 49.503906 45.457031 50.992188 C 45.730469 50.832031 45.992188 50.636719 46.226562 50.40625 C 47.753906 48.886719 47.753906 46.429688 46.226562 44.910156 L 43.457031 42.160156 L 40.691406 39.410156 C 39.398438 38.125 39.203125 36.167969 40.101562 34.675781 C 39.824219 34.835938 39.566406 35.027344 39.332031 35.261719 Z M 39.332031 35.261719 " fill-opacity="1" fill-rule="nonzero"/></g><g clip-path="url(#id6)"><path fill="rgb(100%, 100%, 100%)" d="M 40.6875 33.914062 C 40.59375 34.007812 39.203125 35.378906 39.121094 35.480469 C 39.121094 35.480469 39.65625 34.945312 40.097656 34.671875 C 41.597656 33.78125 43.570312 33.976562 44.863281 35.261719 C 46.394531 36.78125 46.394531 39.238281 44.863281 40.757812 L 46.222656 39.410156 C 47.75 37.890625 47.75 35.433594 46.222656 33.914062 C 44.695312 32.394531 42.21875 32.394531 40.6875 33.914062 Z M 40.6875 33.914062 " fill-opacity="1" fill-rule="nonzero"/></g><path fill="rgb(100%, 100%, 100%)" d="M 44.863281 51.753906 C 44.960938 51.660156 46.347656 50.289062 46.433594 50.191406 C 46.433594 50.191406 45.894531 50.722656 45.453125 50.996094 C 43.953125 51.886719 41.980469 51.695312 40.6875 50.410156 C 39.15625 48.890625 39.15625 46.433594 40.6875 44.914062 L 39.332031 46.257812 C 37.800781 47.777344 37.800781 50.234375 39.332031 51.753906 C 40.855469 53.277344 43.335938 53.277344 44.863281 51.753906 Z M 44.863281 51.753906 " fill-opacity="1" fill-rule="nonzero"/><g fill="rgb(100%, 100%, 100%)" fill-opacity="1"><g transform="translate(80.302734, 54.774818)"><g><path d="M 15.46875 -5.296875 C 15.46875 -3.671875 14.851562 -2.304688 13.625 -1.203125 C 12.394531 -0.109375 10.867188 0.4375 9.046875 0.4375 C 7.785156 0.4375 6.546875 0.195312 5.328125 -0.28125 C 4.691406 -0.507812 4.195312 -0.625 3.84375 -0.625 C 3.613281 -0.625 3.414062 -0.523438 3.25 -0.328125 C 3.082031 -0.128906 2.988281 0.113281 2.96875 0.40625 L 2.265625 0.40625 L 1.328125 -6.265625 L 2.046875 -6.265625 C 2.847656 -4.335938 3.753906 -2.925781 4.765625 -2.03125 C 5.785156 -1.132812 7 -0.6875 8.40625 -0.6875 C 9.5625 -0.6875 10.492188 -1.007812 11.203125 -1.65625 C 11.921875 -2.3125 12.28125 -3.164062 12.28125 -4.21875 C 12.28125 -5 12.132812 -5.617188 11.84375 -6.078125 C 11.0625 -7.253906 9.5 -8.484375 7.15625 -9.765625 C 5.382812 -10.691406 4.117188 -11.625 3.359375 -12.5625 C 2.609375 -13.507812 2.234375 -14.613281 2.234375 -15.875 C 2.234375 -17.59375 2.84375 -18.957031 4.0625 -19.96875 C 5.15625 -20.851562 6.34375 -21.296875 7.625 -21.296875 C 8.675781 -21.296875 9.8125 -21.0625 11.03125 -20.59375 C 11.59375 -20.34375 12.050781 -20.21875 12.40625 -20.21875 C 12.957031 -20.21875 13.296875 -20.578125 13.421875 -21.296875 L 14.078125 -21.296875 L 14.78125 -14.578125 L 13.984375 -14.578125 C 13.566406 -16.160156 12.925781 -17.390625 12.0625 -18.265625 C 10.945312 -19.421875 9.664062 -20 8.21875 -20 C 7.226562 -20 6.4375 -19.726562 5.84375 -19.1875 C 5.25 -18.65625 4.953125 -17.957031 4.953125 -17.09375 C 4.953125 -16.238281 5.304688 -15.429688 6.015625 -14.671875 C 6.734375 -13.921875 7.921875 -13.09375 9.578125 -12.1875 C 11.648438 -11.050781 13.148438 -9.941406 14.078125 -8.859375 C 15.003906 -7.785156 15.46875 -6.597656 15.46875 -5.296875 Z M 15.46875 -5.296875 "/></g></g></g><g fill="rgb(100%, 100%, 100%)" fill-opacity="1"><g transform="translate(97.81676, 54.774818)"><g><path d="M 7.96875 0 L 0.5 0 L 0.5 -0.46875 C 1.59375 -0.53125 2.28125 -0.71875 2.5625 -1.03125 C 2.851562 -1.351562 3 -2.082031 3 -3.21875 L 3 -10.515625 C 3 -11.210938 2.914062 -11.703125 2.75 -11.984375 C 2.59375 -12.265625 2.328125 -12.40625 1.953125 -12.40625 C 1.617188 -12.40625 1.257812 -12.375 0.875 -12.3125 L 0.625 -12.28125 L 0.625 -12.75 L 5.515625 -14.484375 L 5.640625 -14.390625 L 5.640625 -3.21875 C 5.640625 -2.082031 5.769531 -1.359375 6.03125 -1.046875 C 6.289062 -0.742188 6.9375 -0.550781 7.96875 -0.46875 Z M 5.921875 -18.578125 C 5.921875 -18.117188 5.769531 -17.738281 5.46875 -17.4375 C 5.164062 -17.132812 4.78125 -16.984375 4.3125 -16.984375 C 3.875 -16.984375 3.492188 -17.132812 3.171875 -17.4375 C 2.859375 -17.738281 2.703125 -18.117188 2.703125 -18.578125 C 2.703125 -19.023438 2.859375 -19.40625 3.171875 -19.71875 C 3.492188 -20.03125 3.875 -20.1875 4.3125 -20.1875 C 4.78125 -20.1875 5.164062 -20.03125 5.46875 -19.71875 C 5.769531 -19.40625 5.921875 -19.023438 5.921875 -18.578125 Z M 5.921875 -18.578125 "/></g></g></g><g fill="rgb(100%, 100%, 100%)" fill-opacity="1"><g transform="translate(106.573767, 54.774818)"><g><path d="M 15.28125 0 L 8.71875 0 L 8.71875 -0.46875 C 9.519531 -0.53125 10.050781 -0.738281 10.3125 -1.09375 C 10.570312 -1.457031 10.703125 -2.132812 10.703125 -3.125 L 10.703125 -9.703125 C 10.703125 -11.734375 9.9375 -12.75 8.40625 -12.75 C 7.882812 -12.75 7.398438 -12.628906 6.953125 -12.390625 C 6.515625 -12.148438 5.921875 -11.675781 5.171875 -10.96875 L 5.171875 -2.109375 C 5.171875 -1.546875 5.316406 -1.144531 5.609375 -0.90625 C 5.898438 -0.675781 6.445312 -0.53125 7.25 -0.46875 L 7.25 0 L 0.5625 0 L 0.5625 -0.46875 C 1.363281 -0.53125 1.890625 -0.710938 2.140625 -1.015625 C 2.390625 -1.328125 2.515625 -1.929688 2.515625 -2.828125 L 2.515625 -10.640625 C 2.515625 -11.421875 2.429688 -11.953125 2.265625 -12.234375 C 2.097656 -12.515625 1.796875 -12.65625 1.359375 -12.65625 C 0.953125 -12.65625 0.664062 -12.613281 0.5 -12.53125 L 0.5 -13.078125 C 2.050781 -13.535156 3.5 -14.003906 4.84375 -14.484375 L 5.078125 -14.421875 L 5.078125 -11.9375 C 6.140625 -12.945312 6.976562 -13.625 7.59375 -13.96875 C 8.21875 -14.3125 8.898438 -14.484375 9.640625 -14.484375 C 10.796875 -14.484375 11.703125 -14.066406 12.359375 -13.234375 C 13.023438 -12.410156 13.359375 -11.253906 13.359375 -9.765625 L 13.359375 -2.546875 C 13.359375 -1.773438 13.484375 -1.253906 13.734375 -0.984375 C 13.984375 -0.722656 14.5 -0.550781 15.28125 -0.46875 Z M 15.28125 0 "/></g></g></g><g fill="rgb(100%, 100%, 100%)" fill-opacity="1"><g transform="translate(122.323789, 54.774818)"><g><path d="M 14.8125 -12.21875 L 12.1875 -12.21875 C 12.582031 -11.320312 12.78125 -10.441406 12.78125 -9.578125 C 12.78125 -8.066406 12.28125 -6.878906 11.28125 -6.015625 C 10.269531 -5.128906 9.132812 -4.6875 7.875 -4.6875 C 7.664062 -4.6875 7.265625 -4.71875 6.671875 -4.78125 C 6.648438 -4.78125 6.453125 -4.800781 6.078125 -4.84375 C 5.660156 -4.71875 5.238281 -4.4375 4.8125 -4 C 4.394531 -3.5625 4.1875 -3.179688 4.1875 -2.859375 C 4.1875 -2.359375 5.003906 -2.078125 6.640625 -2.015625 L 10.703125 -1.828125 C 11.859375 -1.785156 12.78125 -1.457031 13.46875 -0.84375 C 14.164062 -0.238281 14.515625 0.554688 14.515625 1.546875 C 14.515625 2.722656 13.9375 3.78125 12.78125 4.71875 C 11.019531 6.144531 8.867188 6.859375 6.328125 6.859375 C 4.835938 6.859375 3.554688 6.5625 2.484375 5.96875 C 1.410156 5.375 0.875 4.65625 0.875 3.8125 C 0.875 3.21875 1.109375 2.632812 1.578125 2.0625 C 2.054688 1.488281 2.851562 0.789062 3.96875 -0.03125 C 3.320312 -0.34375 2.878906 -0.613281 2.640625 -0.84375 C 2.410156 -1.082031 2.296875 -1.367188 2.296875 -1.703125 C 2.296875 -2.304688 2.78125 -3.03125 3.75 -3.875 L 5.109375 -5.140625 C 4.054688 -5.660156 3.300781 -6.242188 2.84375 -6.890625 C 2.394531 -7.546875 2.171875 -8.367188 2.171875 -9.359375 C 2.171875 -10.785156 2.679688 -11.992188 3.703125 -12.984375 C 4.722656 -13.984375 5.96875 -14.484375 7.4375 -14.484375 C 8.269531 -14.484375 9.109375 -14.328125 9.953125 -14.015625 L 10.640625 -13.765625 C 11.253906 -13.554688 11.832031 -13.453125 12.375 -13.453125 L 14.8125 -13.453125 Z M 13.640625 2.015625 C 13.640625 1.453125 13.34375 1.050781 12.75 0.8125 C 12.164062 0.582031 11.160156 0.46875 9.734375 0.46875 C 7.609375 0.46875 5.90625 0.332031 4.625 0.0625 C 3.976562 0.84375 3.5625 1.398438 3.375 1.734375 C 3.1875 2.066406 3.09375 2.410156 3.09375 2.765625 C 3.09375 3.460938 3.507812 4.019531 4.34375 4.4375 C 5.1875 4.863281 6.300781 5.078125 7.6875 5.078125 C 9.46875 5.078125 10.90625 4.789062 12 4.21875 C 13.09375 3.65625 13.640625 2.921875 13.640625 2.015625 Z M 10.359375 -8.34375 C 10.359375 -9.644531 10.046875 -10.90625 9.421875 -12.125 C 8.890625 -13.113281 8.125 -13.609375 7.125 -13.609375 C 6.382812 -13.609375 5.804688 -13.34375 5.390625 -12.8125 C 4.984375 -12.289062 4.78125 -11.566406 4.78125 -10.640625 L 4.78125 -10.546875 C 4.78125 -9.035156 5.078125 -7.8125 5.671875 -6.875 C 6.273438 -5.945312 7.050781 -5.484375 8 -5.484375 C 8.738281 -5.484375 9.316406 -5.738281 9.734375 -6.25 C 10.148438 -6.769531 10.359375 -7.46875 10.359375 -8.34375 Z M 10.359375 -8.34375 "/></g></g></g><g fill="rgb(100%, 100%, 100%)" fill-opacity="1"><g transform="translate(138.073812, 54.774818)"><g><path d="M 15.09375 -1.140625 C 13.445312 -0.691406 12.003906 -0.21875 10.765625 0.28125 L 10.640625 0.21875 L 10.640625 -2.390625 L 9.296875 -1.046875 C 8.390625 -0.140625 7.304688 0.3125 6.046875 0.3125 C 4.890625 0.3125 3.960938 -0.0546875 3.265625 -0.796875 C 2.578125 -1.546875 2.234375 -2.539062 2.234375 -3.78125 L 2.234375 -11.71875 C 2.234375 -12.457031 2.097656 -12.96875 1.828125 -13.25 C 1.554688 -13.53125 1.039062 -13.691406 0.28125 -13.734375 L 0.28125 -14.171875 L 4.875 -14.171875 L 4.875 -3.90625 C 4.875 -3.25 5.09375 -2.6875 5.53125 -2.21875 C 5.976562 -1.75 6.507812 -1.515625 7.125 -1.515625 C 8.125 -1.515625 9.066406 -1.890625 9.953125 -2.640625 C 10.304688 -2.921875 10.484375 -3.457031 10.484375 -4.25 L 10.484375 -11.65625 C 10.484375 -12.4375 10.34375 -12.953125 10.0625 -13.203125 C 9.78125 -13.453125 9.144531 -13.597656 8.15625 -13.640625 L 8.15625 -14.171875 L 13.140625 -14.171875 L 13.140625 -3.375 C 13.140625 -2.632812 13.257812 -2.148438 13.5 -1.921875 C 13.738281 -1.691406 14.21875 -1.578125 14.9375 -1.578125 L 15.09375 -1.578125 Z M 15.09375 -1.140625 "/></g></g></g><g fill="rgb(100%, 100%, 100%)" fill-opacity="1"><g transform="translate(153.823834, 54.774818)"><g><path d="M 8.09375 0 L 0.65625 0 L 0.65625 -0.46875 C 1.644531 -0.550781 2.296875 -0.738281 2.609375 -1.03125 C 2.929688 -1.332031 3.09375 -1.898438 3.09375 -2.734375 L 3.09375 -17.765625 C 3.09375 -18.503906 2.992188 -19.007812 2.796875 -19.28125 C 2.609375 -19.550781 2.265625 -19.6875 1.765625 -19.6875 C 1.578125 -19.6875 1.25 -19.664062 0.78125 -19.625 L 0.59375 -19.625 L 0.59375 -20.125 C 2.675781 -20.632812 4.347656 -21.097656 5.609375 -21.515625 L 5.734375 -21.453125 L 5.734375 -2.640625 C 5.734375 -1.785156 5.875 -1.222656 6.15625 -0.953125 C 6.4375 -0.691406 7.082031 -0.53125 8.09375 -0.46875 Z M 8.09375 0 "/></g></g></g><g fill="rgb(100%, 100%, 100%)" fill-opacity="1"><g transform="translate(162.580841, 54.774818)"><g><path d="M 13.921875 -1.265625 C 13.378906 -0.648438 12.898438 -0.234375 12.484375 -0.015625 C 12.078125 0.203125 11.613281 0.3125 11.09375 0.3125 C 10.4375 0.3125 9.957031 0.140625 9.65625 -0.203125 C 9.351562 -0.546875 9.160156 -1.140625 9.078125 -1.984375 C 7.265625 -0.453125 5.726562 0.3125 4.46875 0.3125 C 3.507812 0.3125 2.71875 0 2.09375 -0.625 C 1.476562 -1.257812 1.171875 -2.070312 1.171875 -3.0625 C 1.171875 -4.1875 1.546875 -5.097656 2.296875 -5.796875 C 2.972656 -6.378906 3.648438 -6.84375 4.328125 -7.1875 C 5.015625 -7.539062 6.585938 -8.210938 9.046875 -9.203125 L 9.046875 -11.125 C 9.046875 -12.863281 8.242188 -13.734375 6.640625 -13.734375 C 6.015625 -13.734375 5.476562 -13.582031 5.03125 -13.28125 C 4.59375 -12.976562 4.375 -12.613281 4.375 -12.1875 C 4.375 -11.957031 4.40625 -11.707031 4.46875 -11.4375 C 4.507812 -11.144531 4.53125 -10.976562 4.53125 -10.9375 C 4.53125 -10.570312 4.390625 -10.257812 4.109375 -10 C 3.828125 -9.738281 3.492188 -9.609375 3.109375 -9.609375 C 2.734375 -9.609375 2.414062 -9.742188 2.15625 -10.015625 C 1.894531 -10.285156 1.765625 -10.601562 1.765625 -10.96875 C 1.765625 -11.820312 2.195312 -12.609375 3.0625 -13.328125 C 4 -14.097656 5.332031 -14.484375 7.0625 -14.484375 C 9.007812 -14.484375 10.320312 -13.875 11 -12.65625 C 11.394531 -12.007812 11.59375 -10.941406 11.59375 -9.453125 L 11.59375 -3.3125 C 11.59375 -2.613281 11.660156 -2.132812 11.796875 -1.875 C 11.929688 -1.613281 12.175781 -1.484375 12.53125 -1.484375 C 12.976562 -1.484375 13.441406 -1.679688 13.921875 -2.078125 Z M 9.046875 -3.875 L 9.046875 -8.4375 C 7.148438 -7.75 5.820312 -7.078125 5.0625 -6.421875 C 4.3125 -5.773438 3.9375 -4.988281 3.9375 -4.0625 L 3.9375 -3.9375 C 3.9375 -3.257812 4.128906 -2.6875 4.515625 -2.21875 C 4.910156 -1.75 5.378906 -1.515625 5.921875 -1.515625 C 6.660156 -1.515625 7.425781 -1.742188 8.21875 -2.203125 C 8.550781 -2.410156 8.769531 -2.617188 8.875 -2.828125 C 8.988281 -3.046875 9.046875 -3.394531 9.046875 -3.875 Z M 9.046875 -3.875 "/></g></g></g><g fill="rgb(100%, 100%, 100%)" fill-opacity="1"><g transform="translate(176.56686, 54.774818)"><g><path d="M 10.546875 -12.828125 C 10.546875 -12.378906 10.4375 -12.03125 10.21875 -11.78125 C 10 -11.53125 9.703125 -11.40625 9.328125 -11.40625 C 8.960938 -11.40625 8.539062 -11.613281 8.0625 -12.03125 C 7.726562 -12.34375 7.457031 -12.5 7.25 -12.5 C 6.820312 -12.5 6.347656 -12.191406 5.828125 -11.578125 C 5.304688 -10.972656 5.046875 -10.421875 5.046875 -9.921875 L 5.046875 -2.828125 C 5.046875 -1.929688 5.222656 -1.320312 5.578125 -1 C 5.929688 -0.6875 6.644531 -0.507812 7.71875 -0.46875 L 7.71875 0 L 0.15625 0 L 0.15625 -0.46875 C 1.164062 -0.65625 1.789062 -0.863281 2.03125 -1.09375 C 2.269531 -1.332031 2.390625 -1.847656 2.390625 -2.640625 L 2.390625 -10.515625 C 2.390625 -11.210938 2.3125 -11.703125 2.15625 -11.984375 C 2 -12.265625 1.722656 -12.40625 1.328125 -12.40625 C 0.984375 -12.40625 0.613281 -12.363281 0.21875 -12.28125 L 0.21875 -12.78125 C 1.894531 -13.332031 3.445312 -13.898438 4.875 -14.484375 L 5.046875 -14.421875 L 5.046875 -11.53125 C 5.816406 -12.644531 6.472656 -13.414062 7.015625 -13.84375 C 7.566406 -14.269531 8.164062 -14.484375 8.8125 -14.484375 C 9.363281 -14.484375 9.789062 -14.335938 10.09375 -14.046875 C 10.394531 -13.753906 10.546875 -13.347656 10.546875 -12.828125 Z M 10.546875 -12.828125 "/></g></g></g><g fill="rgb(100%, 100%, 100%)" fill-opacity="1"><g transform="translate(187.056376, 54.774818)"><g><path d="M 7.96875 0 L 0.5 0 L 0.5 -0.46875 C 1.59375 -0.53125 2.28125 -0.71875 2.5625 -1.03125 C 2.851562 -1.351562 3 -2.082031 3 -3.21875 L 3 -10.515625 C 3 -11.210938 2.914062 -11.703125 2.75 -11.984375 C 2.59375 -12.265625 2.328125 -12.40625 1.953125 -12.40625 C 1.617188 -12.40625 1.257812 -12.375 0.875 -12.3125 L 0.625 -12.28125 L 0.625 -12.75 L 5.515625 -14.484375 L 5.640625 -14.390625 L 5.640625 -3.21875 C 5.640625 -2.082031 5.769531 -1.359375 6.03125 -1.046875 C 6.289062 -0.742188 6.9375 -0.550781 7.96875 -0.46875 Z M 5.921875 -18.578125 C 5.921875 -18.117188 5.769531 -17.738281 5.46875 -17.4375 C 5.164062 -17.132812 4.78125 -16.984375 4.3125 -16.984375 C 3.875 -16.984375 3.492188 -17.132812 3.171875 -17.4375 C 2.859375 -17.738281 2.703125 -18.117188 2.703125 -18.578125 C 2.703125 -19.023438 2.859375 -19.40625 3.171875 -19.71875 C 3.492188 -20.03125 3.875 -20.1875 4.3125 -20.1875 C 4.78125 -20.1875 5.164062 -20.03125 5.46875 -19.71875 C 5.769531 -19.40625 5.921875 -19.023438 5.921875 -18.578125 Z M 5.921875 -18.578125 "/></g></g></g><g fill="rgb(100%, 100%, 100%)" fill-opacity="1"><g transform="translate(195.813383, 54.774818)"><g><path d="M 8.78125 -2.078125 C 7.78125 -0.484375 6.515625 0.3125 4.984375 0.3125 C 3.128906 0.3125 2.203125 -1.019531 2.203125 -3.6875 L 2.203125 -13.171875 L 0.53125 -13.171875 C 0.445312 -13.234375 0.40625 -13.304688 0.40625 -13.390625 C 0.40625 -13.554688 0.582031 -13.753906 0.9375 -13.984375 C 1.800781 -14.484375 2.820312 -15.609375 4 -17.359375 C 4.289062 -17.734375 4.5 -18.023438 4.625 -18.234375 C 4.769531 -18.234375 4.84375 -18.097656 4.84375 -17.828125 L 4.84375 -14.171875 L 8.03125 -14.171875 L 8.03125 -13.171875 L 4.84375 -13.171875 L 4.84375 -4.15625 C 4.84375 -3.144531 4.96875 -2.421875 5.21875 -1.984375 C 5.476562 -1.546875 5.898438 -1.328125 6.484375 -1.328125 C 7.117188 -1.328125 7.75 -1.691406 8.375 -2.421875 Z M 8.78125 -2.078125 "/></g></g></g><g fill="rgb(100%, 100%, 100%)" fill-opacity="1"><g transform="translate(204.57039, 54.774818)"><g><path d="M 14.96875 -13.703125 C 14.582031 -13.660156 14.285156 -13.539062 14.078125 -13.34375 C 13.867188 -13.144531 13.660156 -12.789062 13.453125 -12.28125 L 8.59375 0.5625 C 7.757812 2.832031 6.925781 4.445312 6.09375 5.40625 C 5.257812 6.375 4.320312 6.859375 3.28125 6.859375 C 2.601562 6.859375 2.039062 6.6875 1.59375 6.34375 C 1.15625 6 0.9375 5.566406 0.9375 5.046875 C 0.9375 4.660156 1.070312 4.332031 1.34375 4.0625 C 1.625 3.789062 1.941406 3.65625 2.296875 3.65625 C 2.785156 3.65625 3.34375 3.769531 3.96875 4 C 4.257812 4.144531 4.519531 4.21875 4.75 4.21875 C 4.988281 4.21875 5.257812 4.082031 5.5625 3.8125 C 5.863281 3.539062 6.117188 3.203125 6.328125 2.796875 C 6.597656 2.335938 6.875 1.710938 7.15625 0.921875 C 7.445312 0.140625 7.59375 -0.363281 7.59375 -0.59375 C 7.59375 -0.800781 7.476562 -1.191406 7.25 -1.765625 L 2.046875 -12.71875 C 1.796875 -13.269531 1.257812 -13.609375 0.4375 -13.734375 L 0.4375 -14.171875 L 6.9375 -14.171875 L 6.9375 -13.703125 C 6.257812 -13.679688 5.785156 -13.609375 5.515625 -13.484375 C 5.242188 -13.359375 5.109375 -13.148438 5.109375 -12.859375 C 5.109375 -12.535156 5.210938 -12.132812 5.421875 -11.65625 L 9.046875 -3.6875 L 12.09375 -12.375 C 12.175781 -12.5625 12.21875 -12.742188 12.21875 -12.921875 C 12.21875 -13.441406 11.710938 -13.703125 10.703125 -13.703125 L 10.703125 -14.171875 L 14.96875 -14.171875 Z M 14.96875 -13.703125 "/></g></g></g><g fill="rgb(100%, 100%, 100%)" fill-opacity="1"><g transform="translate(220.320412, 54.774818)"><g/></g></g><g fill="rgb(100%, 100%, 100%)" fill-opacity="1"><g transform="translate(228.195423, 54.774818)"><g><path d="M 18.84375 -5.484375 L 17.328125 0 L 0.375 0 L 0.375 -0.59375 C 1.53125 -0.675781 2.273438 -0.890625 2.609375 -1.234375 C 2.953125 -1.585938 3.125 -2.320312 3.125 -3.4375 L 3.125 -17.421875 C 3.125 -18.535156 2.957031 -19.257812 2.625 -19.59375 C 2.300781 -19.925781 1.550781 -20.144531 0.375 -20.25 L 0.375 -20.859375 L 9.265625 -20.859375 L 9.265625 -20.25 C 8.023438 -20.164062 7.222656 -19.953125 6.859375 -19.609375 C 6.503906 -19.265625 6.328125 -18.535156 6.328125 -17.421875 L 6.328125 -2.515625 C 6.328125 -1.972656 6.488281 -1.625 6.8125 -1.46875 C 7.144531 -1.3125 7.890625 -1.234375 9.046875 -1.234375 L 11.15625 -1.234375 C 13.78125 -1.234375 15.625 -1.875 16.6875 -3.15625 C 17.09375 -3.613281 17.546875 -4.390625 18.046875 -5.484375 Z M 18.84375 -5.484375 "/></g></g></g><g fill="rgb(100%, 100%, 100%)" fill-opacity="1"><g transform="translate(247.441947, 54.774818)"><g><path d="M 14.8125 -7.375 C 14.8125 -5.1875 14.132812 -3.359375 12.78125 -1.890625 C 11.4375 -0.421875 9.773438 0.3125 7.796875 0.3125 C 5.828125 0.3125 4.1875 -0.394531 2.875 -1.8125 C 1.5625 -3.226562 0.90625 -5 0.90625 -7.125 C 0.90625 -9.28125 1.550781 -11.046875 2.84375 -12.421875 C 4.132812 -13.796875 5.8125 -14.484375 7.875 -14.484375 C 9.894531 -14.484375 11.554688 -13.8125 12.859375 -12.46875 C 14.160156 -11.125 14.8125 -9.425781 14.8125 -7.375 Z M 11.96875 -6.265625 C 11.96875 -8.429688 11.546875 -10.195312 10.703125 -11.5625 C 9.867188 -12.925781 8.789062 -13.609375 7.46875 -13.609375 C 6.351562 -13.609375 5.453125 -13.15625 4.765625 -12.25 C 4.085938 -11.351562 3.75 -10.15625 3.75 -8.65625 C 3.75 -6.332031 4.210938 -4.304688 5.140625 -2.578125 C 5.847656 -1.234375 6.863281 -0.5625 8.1875 -0.5625 C 9.363281 -0.5625 10.285156 -1.066406 10.953125 -2.078125 C 11.628906 -3.085938 11.96875 -4.484375 11.96875 -6.265625 Z M 11.96875 -6.265625 "/></g></g></g><g fill="rgb(100%, 100%, 100%)" fill-opacity="1"><g transform="translate(263.191969, 54.774818)"><g><path d="M 14.8125 -7.375 C 14.8125 -5.1875 14.132812 -3.359375 12.78125 -1.890625 C 11.4375 -0.421875 9.773438 0.3125 7.796875 0.3125 C 5.828125 0.3125 4.1875 -0.394531 2.875 -1.8125 C 1.5625 -3.226562 0.90625 -5 0.90625 -7.125 C 0.90625 -9.28125 1.550781 -11.046875 2.84375 -12.421875 C 4.132812 -13.796875 5.8125 -14.484375 7.875 -14.484375 C 9.894531 -14.484375 11.554688 -13.8125 12.859375 -12.46875 C 14.160156 -11.125 14.8125 -9.425781 14.8125 -7.375 Z M 11.96875 -6.265625 C 11.96875 -8.429688 11.546875 -10.195312 10.703125 -11.5625 C 9.867188 -12.925781 8.789062 -13.609375 7.46875 -13.609375 C 6.351562 -13.609375 5.453125 -13.15625 4.765625 -12.25 C 4.085938 -11.351562 3.75 -10.15625 3.75 -8.65625 C 3.75 -6.332031 4.210938 -4.304688 5.140625 -2.578125 C 5.847656 -1.234375 6.863281 -0.5625 8.1875 -0.5625 C 9.363281 -0.5625 10.285156 -1.066406 10.953125 -2.078125 C 11.628906 -3.085938 11.96875 -4.484375 11.96875 -6.265625 Z M 11.96875 -6.265625 "/></g></g></g><g fill="rgb(100%, 100%, 100%)" fill-opacity="1"><g transform="translate(278.941991, 54.774818)"><g><path d="M 14.8125 -7.78125 C 14.8125 -5.488281 14.175781 -3.566406 12.90625 -2.015625 C 11.632812 -0.460938 10.0625 0.3125 8.1875 0.3125 C 7.519531 0.3125 6.957031 0.21875 6.5 0.03125 C 6.050781 -0.15625 5.554688 -0.515625 5.015625 -1.046875 L 5.015625 3.90625 C 5.015625 4.894531 5.179688 5.53125 5.515625 5.8125 C 5.847656 6.09375 6.601562 6.242188 7.78125 6.265625 L 7.78125 6.828125 L 0.15625 6.828125 L 0.15625 6.296875 C 1.082031 6.210938 1.679688 6.035156 1.953125 5.765625 C 2.222656 5.492188 2.359375 4.945312 2.359375 4.125 L 2.359375 -10.609375 C 2.359375 -11.347656 2.273438 -11.832031 2.109375 -12.0625 C 1.941406 -12.289062 1.597656 -12.40625 1.078125 -12.40625 C 0.734375 -12.40625 0.46875 -12.394531 0.28125 -12.375 L 0.28125 -12.890625 C 1.601562 -13.285156 3.113281 -13.816406 4.8125 -14.484375 L 5.015625 -14.421875 L 5.015625 -12 C 6.359375 -13.65625 7.867188 -14.484375 9.546875 -14.484375 C 11.078125 -14.484375 12.335938 -13.851562 13.328125 -12.59375 C 14.316406 -11.332031 14.8125 -9.726562 14.8125 -7.78125 Z M 12.09375 -6.546875 C 12.09375 -8.378906 11.738281 -9.84375 11.03125 -10.9375 C 10.332031 -12.039062 9.394531 -12.59375 8.21875 -12.59375 C 7.488281 -12.59375 6.769531 -12.363281 6.0625 -11.90625 C 5.363281 -11.445312 5.015625 -10.984375 5.015625 -10.515625 L 5.015625 -2.765625 C 5.015625 -2.304688 5.375 -1.84375 6.09375 -1.375 C 6.820312 -0.914062 7.550781 -0.6875 8.28125 -0.6875 C 9.414062 -0.6875 10.332031 -1.226562 11.03125 -2.3125 C 11.738281 -3.394531 12.09375 -4.804688 12.09375 -6.546875 Z M 12.09375 -6.546875 "/></g></g></g></svg>