<svg xmlns="http://www.w3.org/2000/svg" xmlns:xlink="http://www.w3.org/1999/xlink" width="500" zoomAndPan="magnify" viewBox="0 0 375 374.999991" height="500" preserveAspectRatio="xMidYMid meet" version="1.0"><defs><g/><clipPath id="id1"><path d="M 0.578125 198 L 75.648438 198 L 75.648438 290.625 L 0.578125 290.625 Z M 0.578125 198 " clip-rule="nonzero"/></clipPath><clipPath id="id2"><path d="M 299 84.375 L 374.382812 84.375 L 374.382812 176.695312 L 299 176.695312 Z M 299 84.375 " clip-rule="nonzero"/></clipPath></defs><g fill="#c50c3e" fill-opacity="1"><g transform="translate(75.321324, 209.242672)"><g><path d="M 49.078125 0 L 33.15625 0 L 33.15625 -1.078125 C 35.394531 -1.234375 36.816406 -1.640625 37.421875 -2.296875 C 38.023438 -2.960938 38.328125 -4.472656 38.328125 -6.828125 L 38.328125 -32.59375 L 23.78125 0 L 22.984375 0 L 8.703125 -31.28125 L 8.703125 -8.359375 C 8.703125 -5.472656 9.039062 -3.566406 9.71875 -2.640625 C 10.40625 -1.710938 11.847656 -1.191406 14.046875 -1.078125 L 14.046875 0 L 0.6875 0 L 0.6875 -1.078125 C 3.03125 -1.234375 4.535156 -1.753906 5.203125 -2.640625 C 5.867188 -3.535156 6.203125 -5.441406 6.203125 -8.359375 L 6.203125 -31.453125 C 6.203125 -33.535156 5.890625 -34.867188 5.265625 -35.453125 C 4.640625 -36.046875 3.148438 -36.421875 0.796875 -36.578125 L 0.796875 -37.65625 L 12.0625 -37.65625 L 25.203125 -8.921875 L 37.765625 -37.65625 L 49.078125 -37.65625 L 49.078125 -36.578125 C 46.953125 -36.378906 45.597656 -35.976562 45.015625 -35.375 C 44.429688 -34.769531 44.140625 -33.460938 44.140625 -31.453125 L 44.140625 -6.203125 C 44.140625 -4.191406 44.441406 -2.875 45.046875 -2.25 C 45.648438 -1.625 46.992188 -1.234375 49.078125 -1.078125 Z M 49.078125 0 "/></g></g></g><g fill="#c50c3e" fill-opacity="1"><g transform="translate(125.88254, 209.242672)"><g><path d="M 34.015625 -9.890625 L 31.28125 0 L 0.6875 0 L 0.6875 -1.078125 C 2.769531 -1.234375 4.113281 -1.625 4.71875 -2.25 C 5.320312 -2.875 5.625 -4.191406 5.625 -6.203125 L 5.625 -31.453125 C 5.625 -33.460938 5.332031 -34.769531 4.75 -35.375 C 4.164062 -35.976562 2.8125 -36.378906 0.6875 -36.578125 L 0.6875 -37.65625 L 16.71875 -37.65625 L 16.71875 -36.578125 C 14.476562 -36.421875 13.035156 -36.03125 12.390625 -35.40625 C 11.753906 -34.78125 11.4375 -33.460938 11.4375 -31.453125 L 11.4375 -4.546875 C 11.4375 -3.566406 11.726562 -2.929688 12.3125 -2.640625 C 12.894531 -2.359375 14.234375 -2.21875 16.328125 -2.21875 L 20.140625 -2.21875 C 24.878906 -2.21875 28.210938 -3.375 30.140625 -5.6875 C 30.859375 -6.519531 31.675781 -7.921875 32.59375 -9.890625 Z M 34.015625 -9.890625 "/></g></g></g><g fill="#000000" fill-opacity="1"><g transform="translate(160.625606, 209.242672)"><g><path d="M 14.609375 0 L 1.1875 0 L 1.1875 -0.859375 C 2.976562 -1.003906 4.15625 -1.34375 4.71875 -1.875 C 5.289062 -2.40625 5.578125 -3.429688 5.578125 -4.953125 L 5.578125 -32.078125 C 5.578125 -33.398438 5.40625 -34.304688 5.0625 -34.796875 C 4.71875 -35.296875 4.09375 -35.546875 3.1875 -35.546875 C 2.84375 -35.546875 2.253906 -35.507812 1.421875 -35.4375 L 1.078125 -35.4375 L 1.078125 -36.34375 C 4.835938 -37.25 7.851562 -38.082031 10.125 -38.84375 L 10.34375 -38.734375 L 10.34375 -4.78125 C 10.34375 -3.226562 10.597656 -2.210938 11.109375 -1.734375 C 11.628906 -1.265625 12.796875 -0.972656 14.609375 -0.859375 Z M 14.609375 0 "/></g></g></g><g fill="#000000" fill-opacity="1"><g transform="translate(176.436654, 209.242672)"><g><path d="M 26.734375 -13.3125 C 26.734375 -9.363281 25.519531 -6.0625 23.09375 -3.40625 C 20.664062 -0.757812 17.671875 0.5625 14.109375 0.5625 C 10.546875 0.5625 7.578125 -0.710938 5.203125 -3.265625 C 2.835938 -5.828125 1.65625 -9.023438 1.65625 -12.859375 C 1.65625 -16.765625 2.816406 -19.957031 5.140625 -22.4375 C 7.472656 -24.914062 10.5 -26.15625 14.21875 -26.15625 C 17.851562 -26.15625 20.847656 -24.941406 23.203125 -22.515625 C 25.554688 -20.085938 26.734375 -17.019531 26.734375 -13.3125 Z M 21.609375 -11.3125 C 21.609375 -15.21875 20.847656 -18.398438 19.328125 -20.859375 C 17.816406 -23.328125 15.867188 -24.5625 13.484375 -24.5625 C 11.472656 -24.5625 9.847656 -23.742188 8.609375 -22.109375 C 7.378906 -20.484375 6.765625 -18.328125 6.765625 -15.640625 C 6.765625 -11.429688 7.597656 -7.769531 9.265625 -4.65625 C 10.554688 -2.238281 12.394531 -1.03125 14.78125 -1.03125 C 16.90625 -1.03125 18.570312 -1.9375 19.78125 -3.75 C 21 -5.570312 21.609375 -8.09375 21.609375 -11.3125 Z M 21.609375 -11.3125 "/></g></g></g><g fill="#c50c3e" fill-opacity="1"><g transform="translate(204.869112, 209.242672)"><g><path d="M 39.125 -18.59375 C 39.125 -12.875 37.367188 -8.210938 33.859375 -4.609375 C 30.359375 -1.003906 25.800781 0.796875 20.1875 0.796875 C 17.6875 0.796875 15.25 0.273438 12.875 -0.765625 C 10.507812 -1.804688 8.492188 -3.21875 6.828125 -5 C 5.304688 -6.632812 4.109375 -8.671875 3.234375 -11.109375 C 2.367188 -13.554688 1.9375 -16.128906 1.9375 -18.828125 C 1.9375 -24.546875 3.679688 -29.242188 7.171875 -32.921875 C 10.660156 -36.609375 15.113281 -38.453125 20.53125 -38.453125 C 26.101562 -38.453125 30.710938 -36.457031 34.359375 -32.46875 C 37.535156 -28.988281 39.125 -24.363281 39.125 -18.59375 Z M 32.640625 -18.65625 C 32.640625 -25.664062 31.03125 -30.632812 27.8125 -33.5625 C 25.6875 -35.457031 23.257812 -36.40625 20.53125 -36.40625 C 17.34375 -36.40625 14.632812 -35.171875 12.40625 -32.703125 C 11.1875 -31.378906 10.21875 -29.4375 9.5 -26.875 C 8.78125 -24.3125 8.421875 -21.59375 8.421875 -18.71875 C 8.421875 -15.5625 8.851562 -12.644531 9.71875 -9.96875 C 10.59375 -7.300781 11.769531 -5.320312 13.25 -4.03125 C 15.332031 -2.175781 17.722656 -1.25 20.421875 -1.25 C 23.453125 -1.25 25.972656 -2.253906 27.984375 -4.265625 C 29.347656 -5.585938 30.273438 -6.972656 30.765625 -8.421875 C 32.015625 -11.679688 32.640625 -15.09375 32.640625 -18.65625 Z M 32.640625 -18.65625 "/></g></g></g><g fill="#c50c3e" fill-opacity="1"><g transform="translate(245.932326, 209.242672)"><g><path d="M 30.828125 -27.359375 C 30.828125 -25.460938 30.34375 -23.707031 29.375 -22.09375 C 28.40625 -20.476562 27.066406 -19.21875 25.359375 -18.3125 C 23.046875 -17.019531 19.726562 -16.375 15.40625 -16.375 C 14.269531 -16.375 12.960938 -16.429688 11.484375 -16.546875 L 11.484375 -6.203125 C 11.484375 -4.117188 11.816406 -2.757812 12.484375 -2.125 C 13.148438 -1.5 14.597656 -1.148438 16.828125 -1.078125 L 16.828125 0 L 0.90625 0 L 0.90625 -1.078125 C 3.070312 -1.265625 4.410156 -1.671875 4.921875 -2.296875 C 5.429688 -2.921875 5.6875 -4.429688 5.6875 -6.828125 L 5.6875 -31.453125 C 5.6875 -33.492188 5.421875 -34.800781 4.890625 -35.375 C 4.359375 -35.945312 3.03125 -36.347656 0.90625 -36.578125 L 0.90625 -37.65625 L 15.921875 -37.65625 C 18.617188 -37.65625 21.101562 -37.285156 23.375 -36.546875 C 25.644531 -35.804688 27.351562 -34.8125 28.5 -33.5625 C 30.050781 -31.882812 30.828125 -29.816406 30.828125 -27.359375 Z M 24.625 -27.015625 C 24.625 -29.929688 23.710938 -32.082031 21.890625 -33.46875 C 20.078125 -34.851562 17.253906 -35.546875 13.421875 -35.546875 C 12.660156 -35.546875 12.144531 -35.410156 11.875 -35.140625 C 11.613281 -34.878906 11.484375 -34.367188 11.484375 -33.609375 L 11.484375 -18.828125 C 12.816406 -18.710938 13.898438 -18.65625 14.734375 -18.65625 C 21.328125 -18.65625 24.625 -21.441406 24.625 -27.015625 Z M 24.625 -27.015625 "/></g></g></g><g fill="#c50c3e" fill-opacity="1"><g transform="translate(277.554414, 209.242672)"><g><path d="M 19.796875 -6.71875 C 19.796875 -4.738281 19.007812 -3.03125 17.4375 -1.59375 C 15.863281 -0.15625 13.992188 0.5625 11.828125 0.5625 C 10.804688 0.5625 9.40625 0.375 7.625 0 C 6.40625 -0.300781 5.53125 -0.453125 5 -0.453125 C 4.4375 -0.453125 4.003906 -0.222656 3.703125 0.234375 L 2.953125 0.234375 L 2.953125 -8.640625 L 3.875 -8.640625 C 4.507812 -5.765625 5.378906 -3.71875 6.484375 -2.5 C 7.585938 -1.289062 9.125 -0.6875 11.09375 -0.6875 C 12.53125 -0.6875 13.675781 -1.054688 14.53125 -1.796875 C 15.382812 -2.535156 15.8125 -3.53125 15.8125 -4.78125 C 15.8125 -6.488281 14.828125 -7.910156 12.859375 -9.046875 L 9.5625 -10.921875 C 7.132812 -12.328125 5.414062 -13.644531 4.40625 -14.875 C 3.40625 -16.101562 2.90625 -17.515625 2.90625 -19.109375 C 2.90625 -21.191406 3.632812 -22.878906 5.09375 -24.171875 C 6.550781 -25.460938 8.4375 -26.109375 10.75 -26.109375 C 12.15625 -26.109375 13.441406 -25.878906 14.609375 -25.421875 C 15.179688 -25.160156 15.695312 -25.03125 16.15625 -25.03125 C 16.300781 -25.03125 16.566406 -25.179688 16.953125 -25.484375 L 17.0625 -25.59375 L 17.6875 -25.59375 L 17.921875 -17.859375 L 17.0625 -17.859375 C 16.414062 -20.398438 15.617188 -22.203125 14.671875 -23.265625 C 13.722656 -24.328125 12.4375 -24.859375 10.8125 -24.859375 C 9.476562 -24.859375 8.410156 -24.503906 7.609375 -23.796875 C 6.816406 -23.097656 6.421875 -22.160156 6.421875 -20.984375 C 6.421875 -19.359375 7.238281 -18.070312 8.875 -17.125 L 15.015625 -13.484375 C 16.753906 -12.453125 17.984375 -11.425781 18.703125 -10.40625 C 19.429688 -9.382812 19.796875 -8.15625 19.796875 -6.71875 Z M 19.796875 -6.71875 "/></g></g></g><path fill="#424242" d="M 366.992188 183.511719 L 366.992188 221.460938 C 366.992188 231.660156 362.367188 240.839844 354.914062 247.410156 C 347.863281 253.621094 338.226562 257.476562 327.703125 257.476562 L 68.777344 257.476562 L 51.503906 245.777344 L 64.953125 234.101562 L 327.703125 234.101562 C 332.359375 234.101562 336.527344 232.484375 339.480469 229.878906 C 342.035156 227.628906 343.621094 224.644531 343.621094 221.460938 L 343.621094 183.511719 L 366.992188 183.511719 " fill-opacity="1" fill-rule="nonzero"/><g clip-path="url(#id1)"><path fill="#c50c3e" d="M 73.585938 216.296875 L 38.734375 246.539062 L 75.398438 271.371094 L 62.339844 290.632812 L 13.128906 257.304688 L 0.578125 248.800781 L 12.035156 238.859375 L 58.335938 198.675781 L 73.585938 216.296875 " fill-opacity="1" fill-rule="nonzero"/></g><path fill="#424242" d="M 7.972656 191.5 L 7.972656 153.546875 C 7.972656 143.351562 12.597656 134.171875 20.050781 127.601562 C 27.097656 121.390625 36.734375 117.53125 47.261719 117.53125 L 306.1875 117.53125 L 323.460938 129.234375 L 310.011719 140.90625 L 47.261719 140.90625 C 42.601562 140.90625 38.4375 142.527344 35.480469 145.132812 C 32.929688 147.382812 31.34375 150.371094 31.34375 153.546875 L 31.34375 191.5 L 7.972656 191.5 " fill-opacity="1" fill-rule="nonzero"/><g clip-path="url(#id2)"><path fill="#c50c3e" d="M 301.378906 158.714844 L 336.230469 128.46875 L 299.566406 103.640625 L 312.621094 84.375 L 361.835938 117.707031 L 374.386719 126.207031 L 362.929688 136.152344 L 316.628906 176.339844 L 301.378906 158.714844 " fill-opacity="1" fill-rule="nonzero"/></g></svg>